<?xml version="1.0" encoding="UTF-8" standalone="no"?>
<!DOCTYPE svg PUBLIC "-//W3C//DTD SVG 1.1//EN" "http://www.w3.org/Graphics/SVG/1.1/DTD/svg11.dtd">
<svg width="100%" height="100%" viewBox="0 0 1500 500" version="1.1" xmlns="http://www.w3.org/2000/svg" xmlns:xlink="http://www.w3.org/1999/xlink" xml:space="preserve" xmlns:serif="http://www.serif.com/" style="fill-rule:evenodd;clip-rule:evenodd;stroke-linejoin:round;stroke-miterlimit:2;">
    <rect x="0" y="0" width="1500" height="500"/>
    <g transform="matrix(0.807306,0,0,0.807306,148.245,-12.2455)">
        <path d="M766.267,378.016L798.235,410.704C793.051,418.696 783.907,423.448 774.259,423.448C758.347,423.448 745.387,410.56 745.387,394.288C745.387,377.944 758.275,365.056 774.259,365.056C782.035,365.056 789.235,368.008 794.707,373.48L786.787,381.328C783.979,378.52 780.595,376.936 776.995,376.36C773.395,375.784 769.507,376.36 766.267,378.016ZM774.259,412.36C777.067,412.36 779.731,411.712 782.251,410.488L758.419,385.864C757.123,388.312 756.475,391.336 756.475,394.288C756.475,404.152 764.251,412.36 774.259,412.36Z" style="fill:white;fill-rule:nonzero;"/>
        <path d="M891.907,423.448C875.923,423.448 863.035,410.416 863.035,394.288C863.035,378.232 875.635,365.056 891.907,365.056C907.963,365.056 920.779,378.016 920.779,394.288C920.779,410.272 908.107,423.448 891.907,423.448ZM891.907,376.144C882.115,376.144 874.123,384.208 874.123,394.288C874.123,404.368 882.187,412.36 891.907,412.36C901.483,412.36 909.691,404.728 909.691,394.288C909.691,384.064 901.771,376.144 891.907,376.144Z" style="fill:white;fill-rule:nonzero;"/>
        <path d="M1012.36,423.448C998.395,423.448 988.459,413.584 988.459,399.616L988.459,366.496L1006.82,366.496L1006.82,376.936L999.619,376.936L999.619,399.616C999.619,407.104 1004.88,412.36 1012.36,412.36C1019.85,412.36 1025.11,407.104 1025.11,399.616L1025.11,376.936L1017.91,376.936L1017.91,366.496L1036.19,366.496L1036.19,399.616C1036.19,413.584 1026.33,423.448 1012.36,423.448Z" style="fill:white;fill-rule:nonzero;"/>
        <path d="M1154.13,422.008L1142.97,422.008L1131.6,406.312L1116.4,422.008L1105.32,422.008L1105.32,366.496L1116.4,366.496L1143.04,403.144L1143.04,366.496L1154.13,366.496L1154.13,422.008ZM1116.4,385.36L1116.4,405.88L1125.04,397.24L1116.4,385.36Z" style="fill:white;fill-rule:nonzero;"/>
        <path d="M1243.41,378.016L1275.38,410.704C1270.19,418.696 1261.05,423.448 1251.4,423.448C1235.49,423.448 1222.53,410.56 1222.53,394.288C1222.53,377.944 1235.42,365.056 1251.4,365.056C1259.18,365.056 1266.38,368.008 1271.85,373.48L1263.93,381.328C1261.12,378.52 1257.74,376.936 1254.14,376.36C1250.54,375.784 1246.65,376.36 1243.41,378.016ZM1251.4,412.36C1254.21,412.36 1256.88,411.712 1259.39,410.488L1235.56,385.864C1234.27,388.312 1233.62,391.336 1233.62,394.288C1233.62,404.152 1241.39,412.36 1251.4,412.36Z" style="fill:white;fill-rule:nonzero;"/>
        <path d="M1363.8,377.584L1358.25,377.584L1358.25,410.92L1363.8,410.92L1363.8,422.008L1341.62,422.008L1341.62,410.92L1347.16,410.92L1347.16,377.584L1341.62,377.584L1341.62,366.496L1363.8,366.496L1363.8,377.584Z" style="fill:white;fill-rule:nonzero;"/>
        <path d="M1471.8,422.008L1432.91,422.008L1432.91,366.496L1444,366.496L1444,410.92L1460.71,410.92L1460.71,399.832L1471.8,399.832L1471.8,422.008Z" style="fill:white;fill-rule:nonzero;"/>
    </g>
    <g transform="matrix(0.176688,0,0,0.176688,1045.1,-7.12161)">
        <path d="M705.254,1247.18L705.254,1446.43L773.21,1446.43L773.21,1344.63C773.21,1323.18 790.592,1305.8 812.033,1305.8C833.474,1305.8 850.855,1323.18 850.855,1344.63L850.855,1446.43L931.269,1446.43L931.269,1344.63C931.269,1323.18 948.65,1305.8 970.091,1305.8C991.533,1305.8 1008.91,1323.18 1008.91,1344.63L1008.91,1446.43L1089.33,1446.43L1089.33,1344.63C1089.33,1323.18 1106.71,1305.8 1128.15,1305.8C1149.59,1305.8 1166.97,1323.18 1166.97,1344.63L1166.97,1446.43L1247.39,1446.43L1247.39,1344.63C1247.39,1323.18 1264.77,1305.8 1286.21,1305.8C1307.65,1305.8 1325.03,1323.18 1325.03,1344.63L1325.03,1446.43L1392.99,1446.43L1392.99,1247.18L705.254,1247.18Z" style="fill:white;fill-rule:nonzero;"/>
    </g>
    <g transform="matrix(0.176688,0,0,0.176688,1045.1,-7.12161)">
        <path d="M781.871,1032.84L781.871,1187.69L834.686,1187.69L834.686,1108.57C834.686,1091.91 848.194,1078.4 864.858,1078.4C881.522,1078.4 895.031,1091.91 895.031,1108.57L895.031,1187.69L957.527,1187.69L957.527,1108.57C957.527,1091.91 971.036,1078.4 987.7,1078.4C1004.36,1078.4 1017.87,1091.91 1017.87,1108.57L1017.87,1187.69L1080.37,1187.69L1080.37,1108.57C1080.37,1091.91 1093.88,1078.4 1110.54,1078.4C1127.21,1078.4 1140.71,1091.91 1140.71,1108.57L1140.71,1187.69L1203.21,1187.69L1203.21,1108.57C1203.21,1091.91 1216.72,1078.4 1233.38,1078.4C1250.05,1078.4 1263.56,1091.91 1263.56,1108.57L1263.56,1187.69L1316.37,1187.69L1316.37,1032.84L781.871,1032.84Z" style="fill:white;fill-rule:nonzero;"/>
    </g>
    <g transform="matrix(0.176688,0,0,0.176688,1045.1,-7.12161)">
        <path d="M1392.99,1235.81L705.254,1235.81C705.254,1215.12 722.031,1198.34 742.726,1198.34L1355.52,1198.34C1376.21,1198.34 1392.99,1215.12 1392.99,1235.81Z" style="fill:white;fill-rule:nonzero;"/>
    </g>
    <g transform="matrix(0.176688,0,0,0.176688,1045.1,-7.12161)">
        <path d="M1316.37,1022.19L781.871,1022.19C781.871,1001.5 798.647,984.722 819.342,984.722L1278.9,984.722C1299.59,984.722 1316.37,1001.5 1316.37,1022.19Z" style="fill:white;fill-rule:nonzero;"/>
    </g>
    <g transform="matrix(0.176688,0,0,0.176688,1045.1,-7.12161)">
        <path d="M1278.09,973.793C1278.1,972.72 1278.13,971.648 1278.13,970.57C1278.13,850.527 1175.6,753.212 1049.12,753.212C922.642,753.212 820.11,850.527 820.11,970.57C820.11,971.648 820.137,972.72 820.153,973.793L1278.09,973.793Z" style="fill:white;fill-rule:nonzero;"/>
    </g>
    <g transform="matrix(0.176688,0,0,0.176688,1045.1,-7.12161)">
        <path d="M1075.63,692.849L1032.31,692.849C1030.58,692.849 1029.19,691.451 1029.19,689.727C1029.19,688.002 1030.58,686.604 1032.31,686.604L1075.63,686.604C1077.35,686.604 1078.75,688.002 1078.75,689.727C1078.75,691.451 1077.35,692.849 1075.63,692.849Z" style="fill:white;fill-rule:nonzero;"/>
    </g>
    <g transform="matrix(0.176688,0,0,0.176688,1045.1,-7.12161)">
        <path d="M1074.17,645.836L1033.77,645.836C1032.1,645.836 1030.75,644.482 1030.75,642.813L1030.75,642.614C1030.75,640.944 1032.1,639.591 1033.77,639.591L1074.17,639.591C1075.84,639.591 1077.19,640.944 1077.19,642.614L1077.19,642.813C1077.19,644.482 1075.84,645.836 1074.17,645.836Z" style="fill:white;fill-rule:nonzero;"/>
    </g>
    <g transform="matrix(0.176688,0,0,0.176688,1045.1,-7.12161)">
        <path d="M1043.17,651.78L1043.17,680.66C1043.17,682.384 1041.77,683.782 1040.05,683.782C1038.33,683.782 1036.93,682.384 1036.93,680.66L1036.93,651.78C1036.93,650.056 1038.33,648.658 1040.05,648.658C1041.77,648.658 1043.17,650.056 1043.17,651.78Z" style="fill:white;fill-rule:nonzero;"/>
    </g>
    <g transform="matrix(0.176688,0,0,0.176688,1045.1,-7.12161)">
        <path d="M1061.39,651.78L1061.39,680.66C1061.39,682.384 1059.99,683.782 1058.26,683.782C1056.54,683.782 1055.14,682.384 1055.14,680.66L1055.14,651.78C1055.14,650.056 1056.54,648.658 1058.26,648.658C1059.99,648.658 1061.39,650.056 1061.39,651.78Z" style="fill:white;fill-rule:nonzero;"/>
    </g>
    <g transform="matrix(0.176688,0,0,0.176688,1045.1,-7.12161)">
        <path d="M1052.67,651.78L1052.67,680.66C1052.67,682.384 1051.27,683.782 1049.55,683.782C1047.82,683.782 1046.42,682.384 1046.42,680.66L1046.42,651.78C1046.42,650.056 1047.82,648.658 1049.55,648.658C1051.27,648.658 1052.67,650.056 1052.67,651.78Z" style="fill:white;fill-rule:nonzero;"/>
    </g>
    <g transform="matrix(0.176688,0,0,0.176688,1045.1,-7.12161)">
        <path d="M1071.01,651.78L1071.01,680.66C1071.01,682.384 1069.61,683.782 1067.89,683.782C1066.17,683.782 1064.77,682.384 1064.77,680.66L1064.77,651.78C1064.77,650.056 1066.17,648.658 1067.89,648.658C1069.61,648.658 1071.01,650.056 1071.01,651.78Z" style="fill:white;fill-rule:nonzero;"/>
    </g>
    <g transform="matrix(0.176688,0,0,0.176688,1045.1,-7.12161)">
        <path d="M1053.97,618.234C1043.73,618.234 1035.44,626.532 1035.44,636.769L1072.5,636.769C1072.5,626.532 1064.21,618.234 1053.97,618.234Z" style="fill:white;fill-rule:nonzero;"/>
    </g>
    <g transform="matrix(0.176688,0,0,0.176688,1045.1,-7.12161)">
        <path d="M1053.97,615.112C1056.42,615.112 1058.75,615.591 1060.89,616.454L1053.97,391.483L1047.04,616.454C1049.19,615.591 1051.52,615.112 1053.97,615.112Z" style="fill:white;fill-rule:nonzero;"/>
    </g>
    <g transform="matrix(0.155506,0,0,0.155506,1060.04,23.5158)">
        <path d="M1049.12,745.905C1058.35,745.905 1067.44,746.438 1076.38,747.445L1076.38,695.202L1031.56,695.202L1031.56,746.536C1037.35,746.119 1043.21,745.905 1049.12,745.905Z" style="fill:white;fill-rule:nonzero;"/>
    </g>
    <g transform="matrix(1.32084,0,0,0.155506,-720.986,23.5158)">
        <rect x="545.854" y="1436.43" width="1011.81" height="20" style="fill:white;fill-rule:nonzero;"/>
    </g>
    <g transform="matrix(0.37082,0,0,0.37082,-57.4175,213.93)">
        <path d="M546.248,-365.257L449.192,-254.377L546.248,-143.209L487.208,-143.209L445.736,-190.729L402.824,-143.209L358.472,-143.209L358.472,-365.257L402.824,-365.257L402.824,-307.081L421.832,-285.481L489.512,-365.257L546.248,-365.257ZM402.824,-239.689L402.824,-201.673L419.528,-220.681L402.824,-239.689Z" style="fill:white;fill-rule:nonzero;"/>
        <path d="M730.568,-143.209L662.6,-302.185L594.632,-143.209L546.248,-143.209L641.288,-365.257L683.912,-365.257L778.664,-143.209L730.568,-143.209Z" style="fill:white;fill-rule:nonzero;"/>
        <path d="M840.296,-282.601L934.184,-187.561L951.464,-187.561L951.464,-143.209L795.944,-143.209L795.944,-365.257L840.296,-365.257L840.296,-282.601ZM880.04,-187.561L840.296,-227.305L840.296,-187.561L880.04,-187.561Z" style="fill:white;fill-rule:nonzero;"/>
        <path d="M1021.74,-209.737L1021.74,-143.209L977.384,-143.209L977.384,-254.089L1028.36,-254.089L977.384,-322.345L977.384,-365.257L1083.94,-365.257C1126.86,-365.257 1161.7,-330.409 1161.7,-287.497C1161.7,-244.585 1126.86,-209.737 1083.94,-209.737L1021.74,-209.737ZM1083.94,-320.905L1034.12,-320.905L1083.94,-254.089C1102.38,-254.089 1117.35,-269.065 1117.35,-287.497C1117.35,-305.929 1102.38,-320.905 1083.94,-320.905Z" style="fill:white;fill-rule:nonzero;"/>
        <path d="M1331.62,-143.209L1263.66,-302.185L1195.69,-143.209L1147.3,-143.209L1242.34,-365.257L1284.97,-365.257L1379.72,-143.209L1331.62,-143.209Z" style="fill:white;fill-rule:nonzero;"/>
    </g>
</svg>
