<?xml version="1.0" encoding="UTF-8" standalone="no"?>
<!DOCTYPE svg PUBLIC "-//W3C//DTD SVG 1.1//EN" "http://www.w3.org/Graphics/SVG/1.1/DTD/svg11.dtd">
<svg width="100%" height="100%" viewBox="0 0 1500 500" version="1.1" xmlns="http://www.w3.org/2000/svg" xmlns:xlink="http://www.w3.org/1999/xlink" xml:space="preserve" xmlns:serif="http://www.serif.com/" style="fill-rule:evenodd;clip-rule:evenodd;stroke-linecap:round;stroke-linejoin:round;stroke-miterlimit:1.5;">
    <rect x="0" y="0" width="1500" height="500"/>
    <g transform="matrix(0.17363,0,0,0.17363,1006.77,-26.2108)">
        <path d="M1492.87,448.309C1399.05,448.309 1312.21,455.617 1239.21,470.011C1120.08,493.5 1052.08,533.526 1047.76,582.712C1038.59,686.862 1292.18,794.568 1613.05,822.808C1771.07,836.708 1921.27,831.353 2035.99,807.711C2152.52,783.695 2219.09,743.244 2223.44,693.81L2224.95,693.942L2223.44,693.81C2227.86,643.596 2173.13,591.409 2069.34,546.865C1964.85,502.024 1821.67,469.793 1666.17,456.108C1606.91,450.894 1548.66,448.309 1492.87,448.309ZM1782.71,833.504C1728.8,833.504 1671.82,831.021 1612.79,825.826C1456.79,812.098 1311.86,779.358 1204.69,733.638C1097,687.703 1040.2,634.008 1044.74,582.446C1049.19,531.797 1118.05,490.812 1238.62,467.037C1355.29,444.031 1507.23,439.079 1666.44,453.089C1989.86,481.552 2235.85,587.405 2226.46,694.076C2218.97,779.223 2034.7,833.504 1782.71,833.504Z" style="fill:rgb(194,194,194);fill-rule:nonzero;"/>
    </g>
    <g transform="matrix(0.17363,0,0,0.17363,1006.77,-26.2108)">
        <path d="M1751.45,793.152C1700.77,793.154 1647.67,789.974 1596.01,783.436C1434.27,762.966 1317.2,713.968 1274.84,649.004C1244.74,602.865 1235.85,561.719 1248.41,526.709C1267.38,473.803 1329.8,453.665 1330.42,453.468L1331.33,456.359C1330.72,456.552 1269.71,476.265 1251.25,527.75C1239.05,561.816 1247.83,602.055 1277.37,647.35C1319.25,711.566 1435.53,760.072 1596.38,780.429C1735.32,798.012 1884.75,791.269 1968.23,763.656C2057.06,734.276 2114.03,680.928 2113.38,627.743C2112.81,580.676 2067.7,541.143 1986.38,516.427L1987.27,513.527C2069.96,538.66 2115.82,579.209 2116.41,627.707C2117.08,682.237 2059.29,736.729 1969.19,766.532C1916.41,783.989 1837.44,793.151 1751.45,793.152Z" style="fill:rgb(194,194,194);fill-rule:nonzero;"/>
    </g>
    <g transform="matrix(0.17363,0,0,0.17363,1006.77,-26.2108)">
        <path d="M1763.12,934.679C1694.77,934.68 1621.3,930.458 1545.97,921.938C1374.91,902.596 1226.52,864.169 1149.02,819.15C1064.79,770.218 1043.06,701.597 1039.67,652.648C1035.99,599.668 1052.46,557.665 1052.63,557.247L1055.44,558.369C1055.28,558.782 1039.04,600.241 1042.7,652.556C1046.07,700.735 1067.51,768.293 1150.54,816.531C1227.7,861.349 1375.65,899.629 1546.31,918.928C1722.58,938.862 1888.73,935.244 2002.13,909C2126.43,880.237 2179.94,820.003 2202.95,774.539C2227.87,725.287 2223.38,682.245 2223.33,681.815L2226.34,681.475C2226.39,681.912 2230.99,725.715 2205.73,775.75C2182.46,821.85 2128.36,882.9 2002.81,911.953C1937.6,927.044 1855,934.677 1763.12,934.679Z" style="fill:rgb(194,194,194);fill-rule:nonzero;"/>
    </g>
    <g transform="matrix(0.17363,0,0,0.17363,1006.77,-26.2108)">
        <path d="M1602.63,784.185L1602.15,781.192C1730.84,760.76 1821.52,714.686 1871.66,644.247C1924.26,570.373 1911.7,495.455 1911.57,494.706L1914.55,494.176C1914.69,494.937 1927.46,571.107 1874.13,646.005C1823.5,717.13 1732.15,763.62 1602.63,784.185Z" style="fill:rgb(194,194,194);fill-rule:nonzero;"/>
    </g>
    <g transform="matrix(0.17363,0,0,0.17363,1006.77,-26.2108)">
        <path d="M1538.29,774.571C1429.55,764.919 1372.48,681.116 1343.74,612.512C1312.69,538.37 1307.19,465.541 1307.13,464.814L1310.16,464.598C1310.21,465.32 1315.69,537.72 1346.57,611.41C1374.98,679.214 1431.35,762.037 1538.56,771.553L1538.29,774.571Z" style="fill:rgb(194,194,194);fill-rule:nonzero;"/>
    </g>
    <g transform="matrix(0.17363,0,0,0.17363,1006.77,-26.2108)">
        <path d="M1170.96,986.543L1187.53,836.343L1184.52,836.012L1167.69,988.588C1168.75,987.843 1169.81,987.129 1170.96,986.543Z" style="fill:rgb(194,194,194);fill-rule:nonzero;"/>
    </g>
    <g transform="matrix(0.17363,0,0,0.17363,1006.77,-26.2108)">
        <path d="M1163.68,1024.97L1031.96,2219.24C1033.02,2219.19 1034.14,2219.55 1034.89,2220.33L1166.6,1026.11C1165.62,1025.87 1164.65,1025.5 1163.68,1024.97Z" style="fill:rgb(194,194,194);fill-rule:nonzero;"/>
    </g>
    <g transform="matrix(0.17363,0,0,0.17363,1006.77,-26.2108)">
        <path d="M1092.35,938.456C1092.54,938.525 1092.71,938.627 1092.91,938.705L1108.78,787.394L1105.77,787.077L1089.96,937.712C1090.76,937.959 1091.56,938.178 1092.35,938.456Z" style="fill:rgb(194,194,194);fill-rule:nonzero;"/>
    </g>
    <g transform="matrix(0.17363,0,0,0.17363,1006.77,-26.2108)">
        <path d="M1082.92,1004.82L968.345,2096.74C969.307,2097.38 970.258,2098.03 971.186,2098.7L1085.7,1007.34C1084.77,1006.5 1083.85,1005.66 1082.92,1004.82Z" style="fill:rgb(194,194,194);fill-rule:nonzero;"/>
    </g>
    <g transform="matrix(0.17363,0,0,0.17363,1006.77,-26.2108)">
        <path d="M1973.7,1347.97C1974.17,1347.84 1974.62,1347.76 1975.08,1347.7L2054.85,896.023L2051.87,895.497L1971.81,1348.77C1972.42,1348.43 1973.06,1348.14 1973.7,1347.97Z" style="fill:rgb(194,194,194);fill-rule:nonzero;"/>
    </g>
    <g transform="matrix(0.17363,0,0,0.17363,1006.77,-26.2108)">
        <path d="M1961.41,1411.56C1961.18,1411.61 1960.93,1411.64 1960.7,1411.68L1825.73,2175.84C1826.77,2176.06 1827.74,2176.38 1828.64,2176.79L1963.84,1411.34C1963.03,1411.52 1962.22,1411.61 1961.41,1411.56Z" style="fill:rgb(194,194,194);fill-rule:nonzero;"/>
    </g>
    <g transform="matrix(0.17363,0,0,0.17363,1006.77,-26.2108)">
        <path d="M1891.59,1368.92C1892.06,1369.12 1892.51,1369.31 1892.97,1369.51L1974.05,916.916L1971.07,916.38L1890.08,1368.45C1890.58,1368.56 1891.08,1368.71 1891.59,1368.92Z" style="fill:rgb(194,194,194);fill-rule:nonzero;"/>
    </g>
    <g transform="matrix(0.17363,0,0,0.17363,1006.77,-26.2108)">
        <path d="M1884.03,1402.22L1742.65,2191.45C1743.65,2191.75 1744.61,2192.15 1745.51,2192.65L1886.76,1404.18C1885.77,1403.61 1884.86,1402.96 1884.03,1402.22Z" style="fill:rgb(194,194,194);fill-rule:nonzero;"/>
    </g>
    <g transform="matrix(0.17363,0,0,0.17363,1006.77,-26.2108)">
        <path d="M1678.96,2391.95C1673.56,2400.28 1667.27,2408.35 1660.01,2416.08C1596.84,2483.37 1473.62,2515.62 1353.43,2496.33C1165.2,2466.12 1044.84,2342.05 1041.27,2244.42C1037.81,2149.84 1066.96,2125.53 1067.25,2125.3L1065.38,2122.92C1064.13,2123.9 1034.71,2148.1 1038.24,2244.53C1041.86,2343.36 1163.21,2468.87 1352.95,2499.32C1376.3,2503.07 1399.75,2504.88 1422.88,2504.88C1519.74,2504.88 1610.69,2473.04 1662.22,2418.16C1668.38,2411.59 1673.83,2404.78 1678.68,2397.79C1678.72,2395.84 1678.83,2393.89 1678.96,2391.95Z" style="fill:rgb(194,194,194);fill-rule:nonzero;"/>
    </g>
    <g transform="matrix(0.17363,0,0,0.17363,1006.77,-26.2108)">
        <path d="M1106.68,1916.42C1092.41,1918.86 1078.49,1921.79 1064.96,1925.19C1064.82,1926.25 1064.66,1927.31 1064.51,1928.37C1077.95,1924.96 1091.82,1922.08 1106.01,1919.61C1106.22,1918.55 1106.44,1917.48 1106.68,1916.42Z" style="fill:rgb(194,194,194);fill-rule:nonzero;"/>
    </g>
    <g transform="matrix(0.17363,0,0,0.17363,1006.77,-26.2108)">
        <path d="M1835.42,2229.19C1835.24,2230.8 1834.93,2232.39 1834.51,2233.99C1864.58,2294.62 1873.65,2357.51 1856.39,2416.72C1804.28,2595.5 1532,2673.96 1249.44,2591.59C1112.45,2551.67 993.529,2480.33 914.586,2390.74C835.811,2301.33 806.31,2204.47 831.517,2117.99C850.321,2053.47 897.819,2002.05 964.086,1966.51C964.192,1965.33 964.306,1964.15 964.43,1962.97C896.514,1998.92 847.8,2051.29 828.608,2117.14C803.099,2204.65 832.826,2302.53 912.312,2392.74C991.631,2482.76 1111.06,2554.42 1248.59,2594.5C1325.03,2616.78 1400.71,2627.33 1471.56,2627.33C1664.11,2627.33 1820.86,2549.43 1859.3,2417.56C1877.1,2356.5 1867.23,2291.58 1835.42,2229.19Z" style="fill:rgb(194,194,194);fill-rule:nonzero;"/>
    </g>
    <g transform="matrix(0.17363,0,0,0.17363,1006.77,-26.2108)">
        <path d="M1831.15,2256.25C1830.78,2257.77 1830.21,2259.06 1829.54,2260.22C1858.11,2329.87 1863.37,2401.32 1843.8,2468.45C1797.82,2626.21 1624.37,2722.42 1419.09,2722.41C1355.56,2722.41 1288.95,2713.19 1222.17,2693.72C939.612,2611.36 758.722,2376.3 818.933,2169.72C819.632,2167.33 820.441,2164.98 821.199,2162.6C821.18,2162.02 821.174,2161.42 821.23,2160.8C821.549,2157.29 821.878,2153.77 822.216,2150.25C819.976,2156.38 817.862,2162.57 816.024,2168.88C755.343,2377.05 937.16,2613.8 1221.32,2696.63C1288.37,2716.18 1355.2,2725.43 1419,2725.43C1625.61,2725.43 1800.35,2628.36 1846.71,2469.3C1866.75,2400.58 1861.02,2327.42 1831.15,2256.25Z" style="fill:rgb(194,194,194);fill-rule:nonzero;"/>
    </g>
    <g transform="matrix(0.17363,0,0,0.17363,1006.77,-26.2108)">
        <path d="M1077.15,933.295L1094.32,773.223L1091.31,772.901L1074.16,932.781C1075.16,932.858 1076.17,933.015 1077.15,933.295Z" style="fill:rgb(194,194,194);fill-rule:nonzero;"/>
    </g>
    <g transform="matrix(0.17363,0,0,0.17363,1006.77,-26.2108)">
        <path d="M1067.65,993.415L951.679,2074.73C952.033,2075.07 952.387,2075.4 952.731,2075.78C953.348,2076.46 953.863,2077.15 954.394,2077.83L1070.37,996.495C1069.5,995.431 1068.59,994.398 1067.65,993.415Z" style="fill:rgb(194,194,194);fill-rule:nonzero;"/>
    </g>
    <g transform="matrix(0.17363,0,0,0.17363,1006.77,-26.2108)">
        <path d="M1927.4,1049.47C1928.38,1041.22 1929.34,1033.53 1930.3,1026.3C1930.29,1026.31 1930.28,1026.34 1930.27,1026.35C1929.73,1028.98 1929.19,1031.64 1928.69,1034.33C1928.95,1035.62 1928.97,1037.03 1928.67,1038.54C1927.89,1042.17 1927.59,1045.81 1927.4,1049.47Z" style="fill:rgb(194,194,194);fill-rule:nonzero;"/>
    </g>
    <g transform="matrix(0.17363,0,0,0.17363,1006.77,-26.2108)">
        <path d="M1951.89,919.53C1949.46,928.53 1947.69,937.689 1945.92,946.853L1927.24,1052.9C1927.1,1056.44 1926.97,1059.99 1926.54,1063.54C1926.08,1067.34 1924.25,1070 1921.87,1071.56C1920.91,1080.47 1919.94,1089.88 1918.97,1099.84L1885.1,1292.17C1832.38,1415.21 1713.77,1450.62 1561.03,1482.59L1560.68,1482.71C1556.24,1484.86 1551.7,1486.98 1547.18,1489.09C1525.62,1499.15 1505.25,1508.66 1495.41,1521.35C1460.24,1566.7 1472.25,1609.78 1476.04,1612.94C1525.21,1653.84 1708.89,1855.43 1740.25,2036.42C1743.31,2054.07 1744.61,2072.28 1744.45,2090.63L1720.66,2225.73C1700.94,2285.05 1672.69,2332.64 1650.63,2349.05C1547.43,2425.82 1246.36,2373.14 1147.88,2298.97C1098.83,2262.03 1071.57,2206.59 1066.86,2134.19C1062.39,2065.39 1079.4,1983.12 1116.05,1896.26C1188.13,1725.47 1440.98,1612.57 1443.52,1611.45L1444.12,1611.19L1444.34,1610.58C1485.48,1495.78 1399.92,1436.48 1324.43,1384.17C1294,1363.08 1265.26,1343.15 1245.55,1320.77C1141.28,1202.31 1211.86,850.468 1212.59,846.929L1209.62,846.32C1209.44,847.208 1191.37,936.31 1186.5,1038.98C1182,1133.91 1188.2,1260.2 1243.28,1322.78C1263.22,1345.43 1292.12,1365.46 1322.7,1386.66C1397.16,1438.26 1481.54,1496.73 1441.7,1608.95C1427.82,1615.21 1184.09,1727.25 1113.26,1895.09C1076.43,1982.37 1059.34,2065.12 1063.84,2134.39C1068.54,2206.67 1096.97,2264.42 1146.06,2301.39C1195.53,2338.64 1294.66,2371.07 1398.6,2384C1513.01,2398.24 1605.52,2386.38 1652.45,2351.48C1672.7,2336.41 1698.13,2295.43 1717.58,2243.2L1706.97,2303.43C1708.63,2299.19 1710.1,2294.88 1711.03,2290.3C1711.48,2288.08 1712.28,2286.25 1713.34,2284.76L1723.75,2225.64C1725.03,2221.75 1741.33,2125.83 1741.33,2125.83C1742.52,2115.75 1747.44,2092.67 1747.46,2091.06L1869.58,1397.74C1868.59,1397.43 1867.63,1396.98 1866.74,1396.4L1747.24,2074.83C1746.74,2061.67 1745.44,2048.64 1743.24,2035.9C1726.85,1941.35 1667.98,1842.66 1621.47,1776.52C1567.3,1699.48 1509.11,1636.51 1478,1610.63C1475.86,1608.39 1463.24,1567.78 1497.81,1523.2C1507.2,1511.09 1527.24,1501.74 1548.47,1491.83C1552.94,1489.75 1557.43,1487.65 1561.84,1485.52C1710.86,1454.32 1827.59,1419.8 1882.92,1304.56L1873.57,1357.6C1874.58,1357.68 1875.58,1357.89 1876.54,1358.24L1886.48,1301.79C1887.47,1290.91 1890.73,1280.44 1893.73,1269.41C1893.79,1269.19 1893.84,1268.97 1893.89,1268.75C1892.82,1271.98 1891.76,1275.21 1890.61,1278.32L1913.86,1146.34C1914.24,1139.55 1914.54,1132.77 1916.02,1125.98C1918.73,1113.58 1920.99,1101.14 1923.16,1088.63C1923.43,1087.03 1923.98,1085.72 1924.72,1084.67L1953.82,919.476C1953.17,919.526 1952.54,919.546 1951.89,919.53Z" style="fill:rgb(194,194,194);fill-rule:nonzero;"/>
    </g>
    <g transform="matrix(0.17363,0,0,0.17363,1006.77,-26.2108)">
        <path d="M952.242,2268.26C946.364,2268.26 940.76,2268.82 935.592,2269.96C922.206,2272.92 913.427,2279.38 910.872,2288.14C908.318,2296.91 912.252,2307.07 921.954,2316.76C931.887,2326.68 946.596,2334.83 963.371,2339.72C980.143,2344.62 996.931,2345.64 1010.64,2342.61C1024.03,2339.65 1032.81,2333.19 1035.36,2324.43C1040.73,2305.99 1017.18,2282.86 982.861,2272.85C972.412,2269.8 961.955,2268.26 952.242,2268.26ZM994,2347.34C983.993,2347.34 973.246,2345.76 962.522,2342.63C945.268,2337.6 930.1,2329.17 919.812,2318.9C909.293,2308.39 905.083,2297.17 907.963,2287.3C910.841,2277.42 920.422,2270.21 934.938,2267.01C949.131,2263.87 966.451,2264.91 983.71,2269.94C1019.63,2280.41 1044.11,2305.24 1038.27,2325.28C1035.39,2335.15 1025.81,2342.36 1011.29,2345.57C1005.92,2346.76 1000.1,2347.34 994,2347.34Z" style="fill:rgb(194,194,194);fill-rule:nonzero;"/>
    </g>
    <g transform="matrix(0.17363,0,0,0.17363,1006.77,-26.2108)">
        <path d="M1722.58,2365.56C1716.7,2365.56 1711.09,2366.12 1705.92,2367.27C1692.54,2370.23 1683.76,2376.68 1681.2,2385.45C1678.65,2394.21 1682.58,2404.37 1692.29,2414.06C1702.22,2423.98 1716.93,2432.13 1733.7,2437.02C1750.48,2441.92 1767.27,2442.94 1780.97,2439.91C1794.36,2436.95 1803.14,2430.49 1805.69,2421.73C1811.07,2403.29 1787.52,2380.15 1753.19,2370.15C1742.74,2367.1 1732.29,2365.56 1722.58,2365.56ZM1764.33,2444.64C1754.33,2444.64 1743.58,2443.06 1732.86,2439.93C1715.6,2434.9 1700.43,2426.48 1690.14,2416.2C1679.62,2405.7 1675.42,2394.47 1678.29,2384.6C1681.17,2374.72 1690.75,2367.51 1705.27,2364.31C1719.46,2361.17 1736.79,2362.21 1754.04,2367.24C1789.97,2377.71 1814.44,2402.54 1808.6,2422.58C1805.72,2432.45 1796.14,2439.66 1781.63,2442.87C1776.25,2444.06 1770.43,2444.64 1764.33,2444.64Z" style="fill:rgb(194,194,194);fill-rule:nonzero;"/>
    </g>
    <g transform="matrix(0.17363,0,0,0.17363,1006.77,-26.2108)">
        <path d="M1724.53,2435.59C1708.33,2482.57 1663.62,2521.92 1598.65,2546.4C1478.54,2591.65 1317.68,2579.38 1207.46,2516.55C1114.51,2463.58 1081.47,2412.64 1070.13,2379.23C1062.3,2356.17 1063.46,2338.12 1065.33,2328.01C1064.42,2327.05 1063.58,2326.02 1062.8,2324.95C1060.57,2334.77 1058.49,2354.19 1067.17,2379.94C1078.62,2413.91 1112,2465.64 1205.96,2519.19C1272.18,2556.93 1356.55,2576.55 1439.53,2576.55C1495.57,2576.55 1550.98,2567.59 1599.71,2549.23C1665.55,2524.43 1710.89,2484.42 1727.4,2436.58L1724.53,2435.59Z" style="fill:rgb(194,194,194);fill-rule:nonzero;"/>
    </g>
    <g transform="matrix(0.17363,0,0,0.17363,1006.77,-26.2108)">
        <path d="M1383.41,1430.83L1382.91,1427.84C1614.98,1389.54 1721.46,1256.78 1769.93,1152.15C1822.47,1038.75 1820.09,933.102 1820.06,932.046L1823.09,931.96C1823.12,933.021 1825.51,1039.38 1772.68,1153.42C1741.64,1220.43 1697.9,1276.96 1642.67,1321.44C1573.66,1377.02 1486.43,1413.83 1383.41,1430.83Z" style="fill:rgb(194,194,194);fill-rule:nonzero;"/>
    </g>
    <g transform="matrix(0.17363,0,0,0.17363,1006.77,-26.2108)">
        <path d="M1709.5,1934.14C1709.37,1934.72 1696.96,1992.78 1655.79,2061.04C1617.79,2124.05 1546.84,2208.81 1424.61,2254.85C1302.49,2300.84 1219.05,2296.91 1170.56,2285.52C1141.32,2278.65 1120.95,2268.32 1108.59,2260.47C1110.49,2262.56 1112.19,2264.79 1113.68,2267.17C1126.34,2274.34 1144.75,2282.54 1169.6,2288.4C1187.84,2292.71 1210.98,2295.97 1239.19,2295.97C1286.67,2295.97 1348.53,2286.74 1425.68,2257.68C1548.72,2211.34 1620.14,2126.02 1658.38,2062.61C1699.82,1993.91 1712.34,1935.34 1712.46,1934.75L1709.5,1934.14Z" style="fill:rgb(194,194,194);fill-rule:nonzero;"/>
    </g>
    <g transform="matrix(0.17363,0,0,0.17363,1006.77,-26.2108)">
        <path d="M1328.33,2773.62C1276.4,2773.62 1218.46,2767.19 1155.82,2750.28C1003.79,2709.23 916.477,2642.16 870.006,2593.12C819.563,2539.9 804.934,2495.71 804.792,2495.27L804.719,2494.81L804.719,2267.35L807.75,2267.35L807.75,2494.56C808.919,2497.97 824.128,2540.36 872.349,2591.19C918.552,2639.89 1005.37,2706.52 1156.61,2747.35C1307.94,2788.21 1431.77,2767.63 1509,2743.17C1592.64,2716.68 1641.08,2680.11 1641.56,2679.74L1643.4,2682.15C1642.91,2682.52 1594.06,2719.41 1509.92,2746.06C1464.28,2760.51 1402.44,2773.62 1328.33,2773.62Z" style="fill:rgb(194,194,194);fill-rule:nonzero;"/>
    </g>
    <g transform="matrix(0.17363,0,0,0.17363,1006.77,-26.2108)">
        <path d="M2218.86,663.144C2218.7,662.725 2202.11,620.699 2149.57,570.011C2101.06,523.212 2011.12,459.253 1858.11,420.318C1502.41,329.813 1219.55,344.157 1203.19,345.096L1062.79,547.563L1060.3,545.836L1201.53,342.162L1202.26,342.115C1205.14,341.927 1493.72,324.475 1858.85,417.383C2012.63,456.512 2103.06,520.876 2151.83,567.982C2204.77,619.111 2221.52,661.631 2221.68,662.055L2218.86,663.144Z" style="fill:rgb(194,194,194);fill-rule:nonzero;"/>
    </g>
    <g transform="matrix(0.17363,0,0,0.17363,1006.77,-26.2108)">
        <path d="M1039.71,658.85C969.799,604.856 958.114,469.988 958.003,468.633L957.922,467.625L1201.67,342.279L1203.05,344.975L961.116,469.391C962.319,481.836 975.88,605.723 1041.57,656.453L1039.71,658.85Z" style="fill:rgb(194,194,194);fill-rule:nonzero;"/>
    </g>
    <g transform="matrix(0.17363,0,0,0.17363,1006.77,-26.2108)">
        <path d="M1035.29,2219.56L1035.28,2213.78L1032.91,2215.4C1032.69,2215.55 1009.85,2230.69 973.649,2217.09C941.052,2204.85 928.576,2172.11 926.299,2165.3L932.132,2162.73C932.105,2162.65 932.064,2162.58 932.038,2162.51C931.74,2161.59 931.512,2160.69 931.309,2159.78L922.629,2163.61L922.984,2164.87C923.098,2165.28 934.838,2205.75 972.583,2219.93C1003.97,2231.72 1025.36,2222.97 1032.26,2219.29L1036.11,2319.15L1039.14,2319.03L1035.29,2219.56Z" style="fill:rgb(194,194,194);fill-rule:nonzero;"/>
    </g>
    <g transform="matrix(0.17363,0,0,0.17363,1006.77,-26.2108)">
        <path d="M910.647,2306.71C889.827,2234.85 922.74,2164.51 923.076,2163.81L925.81,2165.12C925.48,2165.81 893.066,2235.14 913.559,2305.87L910.647,2306.71Z" style="fill:rgb(194,194,194);fill-rule:nonzero;"/>
    </g>
    <g transform="matrix(0.17363,0,0,0.17363,1006.77,-26.2108)">
        <path d="M936.311,2191.19C936.169,2190.85 922.151,2156.72 929.114,2123.79C936.061,2090.96 951.649,2072.03 952.309,2071.25L956.101,2066.71L954.958,2072.52C954.942,2072.6 953.41,2080.82 959.428,2089.42C966.133,2099 979.2,2105.37 998.267,2108.35C1023.79,2112.34 1035.44,2107.55 1040.71,2102.83C1046.18,2097.94 1046,2092.23 1045.99,2092.17L1049.02,2092.04C1049.03,2092.33 1049.26,2099.25 1042.73,2105.09C1034.35,2112.59 1019.23,2114.69 997.799,2111.34C977.835,2108.23 964.071,2101.41 956.89,2091.08C953.212,2085.79 952.067,2080.67 951.797,2077.06C946.944,2084.16 937.094,2100.72 932.079,2124.42C925.309,2156.44 938.969,2189.69 939.108,2190.03L936.311,2191.19Z" style="fill:rgb(194,194,194);fill-rule:nonzero;"/>
    </g>
    <g transform="matrix(0.17363,0,0,0.17363,1006.77,-26.2108)">
        <path d="M1826.45,2264.93C1826.09,2265.92 1825.7,2266.9 1825.3,2267.87L1830,2271.47C1826.52,2277.7 1807.76,2308.44 1774.53,2314.27C1737.84,2320.69 1712.12,2290.33 1711.87,2290.02L1709.98,2287.75L1700.74,2323.17L1686.81,2374.34C1688.12,2373.42 1689.38,2372.45 1690.7,2371.56L1703.67,2323.95L1711.47,2294.05C1718.28,2301.08 1742.48,2322.97 1775.05,2317.25C1813.4,2310.53 1833.11,2272.13 1833.3,2271.74L1833.86,2270.62L1826.45,2264.93Z" style="fill:rgb(194,194,194);fill-rule:nonzero;"/>
    </g>
    <g transform="matrix(0.17363,0,0,0.17363,1006.77,-26.2108)">
        <path d="M1808.5,2422.85L1805.8,2421.46C1840.29,2354.19 1830.55,2272.07 1830.44,2271.25L1833.45,2270.87C1833.55,2271.7 1843.42,2354.72 1808.5,2422.85Z" style="fill:rgb(194,194,194);fill-rule:nonzero;"/>
    </g>
    <g transform="matrix(0.17363,0,0,0.17363,1006.77,-26.2108)">
        <path d="M1815.17,2295.58L1812.64,2293.91C1812.84,2293.6 1832.81,2262.77 1833.41,2229.14C1833.84,2204.44 1828.34,2185.91 1825.31,2177.67C1824.2,2181.44 1821.83,2186.64 1816.75,2191.38C1807.75,2199.79 1793.67,2203.63 1774.94,2202.8C1754.77,2201.9 1741.25,2197 1734.76,2188.23C1729.26,2180.8 1731.07,2173.42 1731.15,2173.11L1734.09,2173.87C1734.02,2174.12 1732.57,2180.23 1737.24,2186.49C1743.1,2194.34 1756.18,2198.93 1775.07,2199.77C1792.97,2200.54 1806.3,2197 1814.69,2189.17C1822.93,2181.47 1823.25,2172.35 1823.25,2172.26L1823.41,2165.98L1826.13,2171.64C1826.58,2172.57 1837.05,2194.74 1836.44,2229.19C1835.83,2263.71 1815.38,2295.26 1815.17,2295.58Z" style="fill:rgb(194,194,194);fill-rule:nonzero;"/>
    </g>
    <g transform="matrix(0.17363,0,0,0.17363,1006.77,-26.2108)">
        <path d="M1091.13,939.167C1090.18,939.126 1067.77,938.045 1058.27,925.919C1054.52,921.139 1053.3,915.314 1054.66,908.61C1060.26,880.792 1080.99,878.624 1081.19,878.605L1081.47,881.623C1080.71,881.696 1062.77,883.692 1057.63,909.208C1056.46,915.004 1057.47,919.995 1060.65,924.044C1069.28,935.071 1091.04,936.13 1091.26,936.139L1091.13,939.167Z" style="fill:rgb(194,194,194);fill-rule:nonzero;"/>
    </g>
    <g transform="matrix(0.17363,0,0,0.17363,1006.77,-26.2108)">
        <path d="M1163.26,1026.95C1150.85,1026.95 1085.01,1025.3 1065,990.875C1043.48,953.828 1054.08,917.089 1054.19,916.722L1057.09,917.589C1056.98,917.942 1046.78,953.476 1067.62,989.354C1087.44,1023.45 1157.61,1023.98 1164.56,1023.91C1166.41,1022.08 1175.44,1011.29 1173.31,978.223L1176.34,978.028C1178.82,1016.57 1166.58,1026.24 1166.06,1026.63L1165.67,1026.93L1165.18,1026.94C1164.94,1026.94 1164.28,1026.95 1163.26,1026.95Z" style="fill:rgb(194,194,194);fill-rule:nonzero;"/>
    </g>
    <g transform="matrix(0.17363,0,0,0.17363,1006.77,-26.2108)">
        <path d="M1156.52,991.626C1147.68,991.626 1135.93,989.529 1121.34,985.334C1108.27,981.581 1098.99,974.867 1093.76,965.383C1085.74,950.853 1090.13,935.217 1090.32,934.559L1093.23,935.401C1093.2,935.491 1090.66,944.546 1092.98,954.82C1096.07,968.456 1105.89,977.742 1122.17,982.422C1155.74,992.067 1167.41,988.708 1171.3,984.192C1174.29,980.719 1173.95,974.916 1170.29,966.947L1173.05,965.683C1177.24,974.826 1177.42,981.718 1173.6,986.169C1170.47,989.807 1164.76,991.626 1156.52,991.626Z" style="fill:rgb(194,194,194);fill-rule:nonzero;"/>
    </g>
    <g transform="matrix(0.17363,0,0,0.17363,1006.77,-26.2108)">
        <path d="M1996.65,1355.54C1984.29,1355.54 1971.69,1350.11 1970.98,1349.8L1972.19,1347.03C1972.42,1347.12 1994.83,1356.76 2007.99,1350.22C2012.43,1348.02 2015.35,1344.13 2016.66,1338.67C2022.76,1313.44 1982.23,1299.64 1981.82,1299.5L1982.78,1296.62C1984.56,1297.22 2026.35,1311.45 2019.61,1339.38C2018.07,1345.75 2014.61,1350.31 2009.33,1352.94C2005.51,1354.83 2001.1,1355.54 1996.65,1355.54Z" style="fill:rgb(194,194,194);fill-rule:nonzero;"/>
    </g>
    <g transform="matrix(0.17363,0,0,0.17363,1006.77,-26.2108)">
        <path d="M1942.01,1416.39C1905.48,1416.39 1863.18,1395.17 1860.85,1393.98L1860.44,1393.78L1860.21,1393.38C1859.88,1392.78 1852.21,1378.32 1871.44,1344.77L1874.07,1346.27C1857.52,1375.15 1861.72,1389.09 1862.69,1391.52C1869.06,1394.65 1937.8,1427.52 1972.06,1406.04C2007.9,1383.58 2013.48,1346.84 2013.53,1346.47L2016.53,1346.89C2016.48,1347.27 2010.75,1385.37 1973.67,1408.61C1964.69,1414.24 1953.64,1416.39 1942.01,1416.39Z" style="fill:rgb(194,194,194);fill-rule:nonzero;"/>
    </g>
    <g transform="matrix(0.17363,0,0,0.17363,1006.77,-26.2108)">
        <path d="M1934.13,1378.42C1930.15,1378.42 1925.93,1377.99 1921.48,1377.13C1889.98,1371.06 1872.78,1362.86 1870.36,1352.77C1869.02,1347.13 1872.27,1341.21 1880.04,1335.18L1881.9,1337.57C1875.15,1342.81 1872.26,1347.69 1873.31,1352.06C1875.36,1360.64 1892.67,1368.49 1922.05,1374.16C1936.02,1376.85 1947.46,1375.12 1956.09,1369.01C1968.35,1360.33 1970.66,1345.66 1970.69,1345.51L1973.68,1345.96C1973.58,1346.61 1971.15,1362.07 1957.84,1371.49C1951.32,1376.1 1943.37,1378.42 1934.13,1378.42Z" style="fill:rgb(194,194,194);fill-rule:nonzero;"/>
    </g>
    <g transform="matrix(0.17363,0,0,0.17363,1006.77,-26.2108)">
        <path d="M1460.15,1313.36C1435.75,1313.36 1412.68,1311.72 1391.63,1309.21C1288.12,1296.85 1210.04,1261.25 1209.26,1260.89L1210.53,1258.14C1211.3,1258.49 1289.02,1293.92 1392.08,1306.21C1487.07,1317.54 1623.66,1310.96 1734.93,1215.3L1736.9,1217.59C1649.46,1292.78 1546.56,1313.36 1460.15,1313.36Z" style="fill:rgb(194,194,194);fill-rule:nonzero;"/>
    </g>
    <g transform="matrix(0.17363,0,0,0.17363,1006.77,-26.2108)">
        <path d="M1419.86,2219.76C1334.26,2219.76 1258.32,2191.56 1203.56,2163.15C1120.41,2120.02 1066.86,2067.15 1066.32,2066.62L1068.46,2064.47C1068.99,2065 1122.28,2117.59 1205.04,2160.5C1281.33,2200.06 1398.99,2239.25 1526.33,2201.31L1527.19,2204.22C1490.36,2215.19 1454.32,2219.76 1419.86,2219.76Z" style="fill:rgb(194,194,194);fill-rule:nonzero;"/>
    </g>
    <g transform="matrix(0.17363,0,0,0.17363,1006.77,-26.2108)">
        <path d="M1047.71,696.156C975.358,651.11 954.833,591.478 950.358,549.383C945.51,503.798 957.962,468.352 958.087,468L960.94,469.021C960.816,469.368 948.579,504.266 953.385,549.189C957.812,590.572 978.049,649.216 1049.31,693.584L1047.71,696.156Z" style="fill:rgb(194,194,194);fill-rule:nonzero;"/>
    </g>
    <g transform="matrix(0.17363,0,0,0.17363,1006.77,-26.2108)">
        <path d="M2218.3,719.937L2216.28,717.676C2216.71,717.293 2259.14,678.655 2247.41,627.601C2233.42,566.674 2147.79,512.166 1999.8,469.968L2000.63,467.053C2151.91,510.188 2235.93,563.984 2250.37,626.953C2262.48,679.763 2218.74,719.542 2218.3,719.937Z" style="fill:rgb(194,194,194);fill-rule:nonzero;"/>
    </g>
    <g transform="matrix(0.17363,0,0,0.17363,1006.77,-26.2108)">
        <path d="M1876.06,1360.96L1868.08,1350.96L1948.96,920.671L1954.46,920.671L1876.06,1360.96Z" style="fill:rgb(194,194,194);fill-rule:nonzero;"/>
    </g>
    <g transform="matrix(0.17363,0,0,0.17363,1006.77,-26.2108)">
        <path d="M1151.27,2840.9C1123.44,2840.9 1098.31,2833.68 1074.15,2824.77C907.079,2763.12 894.69,2616.95 893.076,2611.54L922.629,2636.44C926.989,2656.19 955.93,2736.98 1086.82,2797.24C1133.54,2818.76 1193.6,2814.22 1260.51,2784.12C1396.03,2723.17 1551.31,2564.71 1697.75,2337.92C1867.09,2075.66 2019.09,1730.72 2137.32,1340.38C2209.97,1100.51 2243.83,903.924 2237.95,756.073C2233.32,639.458 2204.13,553.353 2151.19,500.149C2057.43,405.913 1956.42,437.831 1932.73,442.826L1887.3,425.105C1893.75,423.168 2065.7,371.549 2172.44,478.543C2231,537.238 2263.23,630.104 2268.22,754.559C2274.29,905.834 2240.01,1105.89 2166.32,1349.16C2047.28,1742.17 1894.05,2089.76 1723.2,2354.36C1573.64,2586 1413.73,2748.44 1272.94,2811.76C1229.81,2831.16 1188.78,2840.9 1151.27,2840.9Z" style="fill:rgb(194,194,194);fill-rule:nonzero;"/>
    </g>
    <g transform="matrix(0.17363,0,0,0.17363,1006.77,-26.2108)">
        <path d="M1068.42,2127.97L1053.27,2142.12C1056.24,2002.06 1103.85,1889.55 1106.83,1883.54C1179.14,1721.57 1404.36,1617.24 1433.97,1604.1C1446.83,1570.32 1440.22,1525.87 1439.16,1519.42C1416.78,1467.39 1388.1,1446.79 1344.81,1415.69C1315.67,1394.76 1279.42,1368.71 1235.66,1325.48C1126.5,1217.65 1199.06,859.958 1202.2,844.785L1217.04,847.856C1216.28,851.492 1142.98,1212.63 1246.3,1314.7C1289.22,1357.1 1324.94,1382.76 1353.65,1403.38C1397.6,1434.96 1429.35,1457.77 1453.44,1514.29L1453.77,1515.06L1453.92,1515.89C1454.34,1518.16 1463.98,1571.95 1446.84,1612.73L1445.65,1615.54L1442.84,1616.75C1440.36,1617.82 1193.91,1725.4 1120.6,1889.86L1120.45,1890.17C1119.96,1891.15 1071.34,1990.06 1068.42,2127.97Z" style="fill:rgb(194,194,194);fill-rule:nonzero;"/>
    </g>
    <g transform="matrix(0.17363,0,0,0.17363,1006.77,-26.2108)">
        <path d="M1746.95,2068.86C1730.67,1860.67 1476.89,1619.59 1474.4,1617.25L1471.12,1614.16L1471.59,1609.68C1483.48,1496.47 1520.83,1487.24 1620.65,1462.58C1634.74,1459.09 1650.71,1455.15 1667.96,1450.57C1837.58,1406.52 1872.44,1318.26 1872.72,1317.38L1870.07,1343.16C1868.87,1347.17 1853.05,1421.28 1672.58,1468.16C1655.22,1472.76 1639.17,1476.73 1625.02,1480.23C1528.12,1504.16 1501.03,1510.86 1490.16,1607.17C1504,1620.62 1559.33,1675.72 1615.53,1750.1C1702.67,1865.45 1745.43,1946.63 1752.51,2037.17L1746.95,2068.86Z" style="fill:rgb(194,194,194);fill-rule:nonzero;"/>
    </g>
    <g transform="matrix(0.17363,0,0,0.17363,1006.77,-26.2108)">
        <path d="M1824.43,2526.81L1839.68,2493.02C2199.84,2181.12 2017.21,1896.18 1953.64,1806.09C1901.92,1732.78 1725.32,1659.49 1538.35,1581.91C1254.42,1464.08 932.592,1330.54 874.432,1137.89C843.628,1035.85 849.983,956.458 893.319,901.915C960.038,817.939 1083.06,824.954 1088.51,825.309L1084.24,849.671C1083.03,849.603 970.951,843.044 912.224,917.091C874.195,965.041 869.289,1036.97 897.639,1130.88C952.485,1312.55 1268.68,1443.76 1547.65,1559.52C1746.2,1641.91 1917.68,1713.07 1973.45,1792.11C2048.77,1898.87 2085.04,2021.07 2075.58,2136.2C2063.8,2279.6 1967.01,2414.58 1824.43,2526.81Z" style="fill:rgb(194,194,194);fill-rule:nonzero;"/>
    </g>
    <g transform="matrix(0.17363,0,0,0.17363,1006.77,-26.2108)">
        <path d="M1119.93,2210.05C1119.93,2210.05 1160.21,2340.23 1364.49,2361.49C1568.78,2382.76 1647.03,2335.95 1647.03,2335.95C1647.03,2335.95 1255.14,2447.51 1119.93,2210.05Z" style="fill:rgb(194,194,194);fill-rule:nonzero;"/>
    </g>
    <g transform="matrix(0.519447,0,0,0.519447,659.47,306.242)">
        <text x="341.192px" y="-143.209px" style="font-family:'Kontanter-Bold', 'Kontanter';font-size:288px;fill:white;">KaLP<tspan x="1147.3px " y="-143.209px ">a</tspan></text>
    </g>
    <g transform="matrix(1,0,0,1,-236.804,21.8434)">
        <path d="M-24.903,380.161C-24.903,380.161 84.66,209.927 257.625,210.093C430.59,210.259 410.758,367.562 511.713,344.748C612.668,321.935 598.048,156.332 708.416,152.422C818.785,148.511 739.122,282.745 872.623,287.011C1006.12,291.278 1078.74,182.866 1102.17,171.869" style="fill:none;stroke:white;stroke-width:4px;"/>
    </g>
    <g transform="matrix(1,0,0,1,-91.8522,106.474)">
        <circle cx="349.155" cy="260.518" r="10.518" style="fill:white;stroke:white;stroke-width:4px;"/>
    </g>
    <g transform="matrix(1,0,0,1,283.805,47.4674)">
        <circle cx="349.155" cy="260.518" r="10.518" style="fill:white;stroke:white;stroke-width:4px;"/>
    </g>
</svg>
